# xmcd
# Track frame offsets:
# 150
# 25509
# 36876
# 63871
# 81895
# 173955
# 231190
# 280678
#
# Disc length: 4202 seconds
# Revision: 0
# Processed by: cddbd v1.4PL0 Copyright (c) Steve Scherf et al.
# Submitted via: VisiTrax 2.9.5.181 - For more info visit www.synapsa.com
#
DISCID=5c106808
DTITLE=Savoy Brown - Hellbound Train Live 1969-1972
DYEAR=2000
DGENRE=Blues
TTITLE0=I´m tired
TTITLE1=Hard way to go
TTITLE2=A little more wine
TTITLE3=Savoy Brown Boogie no.2
TTITLE4=Louisiana blues
TTITLE5=Memory pain
TTITLE6=Leaving again
TTITLE7=Shack, rattle and roll
EXTD=
EXTT0=
EXTT1=
EXTT2=
EXTT3=
EXTT4=
EXTT5=
EXTT6=
EXTT7=
PLAYORDER=
